<svg xmlns="http://www.w3.org/2000/svg" width="90.76" height="103.851" id="google-play-store">
  <defs>
    <linearGradient id="a" x2="1" y1=".5" y2=".5" gradientUnits="objectBoundingBox">
      <stop offset="0" stop-color="#63be6b"></stop>
      <stop offset=".506" stop-color="#5bbc6a"></stop>
      <stop offset="1" stop-color="#4ab96a"></stop>
    </linearGradient>
    <linearGradient id="b" x2=".999" y1=".5" y2=".5" gradientUnits="objectBoundingBox">
      <stop offset="0" stop-color="#3ec6f2"></stop>
      <stop offset="1" stop-color="#45afe3"></stop>
    </linearGradient>
    <linearGradient id="c" x2="1" y1=".5" y2=".5" gradientUnits="objectBoundingBox">
      <stop offset="0" stop-color="#faa51a"></stop>
      <stop offset=".387" stop-color="#fab716"></stop>
      <stop offset=".741" stop-color="#fac412"></stop>
      <stop offset="1" stop-color="#fac80f"></stop>
    </linearGradient>
    <linearGradient id="d" x2="1" y1=".5" y2=".5" gradientUnits="objectBoundingBox">
      <stop offset="0" stop-color="#ec3b50"></stop>
      <stop offset="1" stop-color="#e7515b"></stop>
    </linearGradient>
  </defs>
  <g>
    <path fill="url(#a)" d="M58.215 31.654 3.337.288a2.21 2.21 0 0 0-2.225.023A2.2 2.2 0 0 0 0 2.224s.022 2.892.044 7.652L40.019 49.85Z" transform="translate(0 .001)"></path>
    <path fill="url(#b)" d="M.2 44.4c.067 17.173.267 58.86.356 79.615L40.2 84.374Z" transform="translate(-.156 -34.523)"></path>
    <path fill="url(#c)" d="m229.429 160.252-31.41-17.952-18.219 18.2 20.554 20.554 29.1-16.951a2.224 2.224 0 0 0 1.112-1.913 2.253 2.253 0 0 0-1.137-1.938Z" transform="translate(-139.804 -110.645)"></path>
    <path fill="url(#d)" d="M1.7 263.818c.044 7.408.067 12.146.067 12.146a2.17 2.17 0 0 0 1.112 1.913 2.21 2.21 0 0 0 2.224 0l56.791-33.123L41.341 224.2Z" transform="translate(-1.322 -174.327)"></path>
  </g>
</svg>
